<svg version="1.1" id="Layer_1" xmlns="http://www.w3.org/2000/svg" xmlns:xlink="http://www.w3.org/1999/xlink" x="0px" y="0px"
	 width="100%" viewBox="0 0 1024 1024" enable-background="new 0 0 1024 1024" xml:space="preserve">
<path fill="#000000" opacity="1.000000" stroke="none" 
	d="
M234.484497,549.616333 
	C243.294662,522.250610 252.000626,495.166016 260.611877,468.051331 
	C264.036133,457.269226 267.375732,446.456848 270.532440,435.593933 
	C275.713562,417.764496 293.718353,415.212921 306.556976,420.413300 
	C312.131683,422.671387 315.490570,427.393127 317.314148,432.949219 
	C323.384094,451.443207 329.285614,469.992676 335.207062,488.535187 
	C341.230011,507.395416 347.209900,526.269470 353.173370,545.148621 
	C353.621674,546.567810 353.730713,548.106079 355.437836,549.138123 
	C357.882874,548.199585 358.125793,545.802429 358.764130,543.657776 
	C369.443787,507.776398 380.189484,471.914581 390.780426,436.007050 
	C394.969513,421.804321 405.210815,415.697968 419.318481,418.508728 
	C432.736298,421.182098 439.367004,432.288513 435.508026,445.523010 
	C427.543243,472.838440 419.384277,500.097839 411.187561,527.344910 
	C402.273010,556.978394 393.207489,586.566406 384.244781,616.185486 
	C381.175812,626.327576 374.772339,633.068176 364.207489,634.854065 
	C353.907288,636.595093 344.223694,635.245850 336.845490,626.672363 
	C334.066986,623.443665 332.458069,619.617981 331.133240,615.656799 
	C319.993866,582.350952 308.874115,549.038574 297.758026,515.724976 
	C297.134705,513.856934 296.860962,511.791473 294.683777,510.862122 
	C291.887817,511.488159 292.035706,514.113098 291.420013,515.980530 
	C282.301208,543.637451 273.301941,571.333740 264.229187,599.005798 
	C262.362122,604.700378 260.388824,610.363159 258.328522,615.990845 
	C253.562653,629.008545 243.621521,636.174011 230.828613,635.931396 
	C217.855225,635.685303 209.018433,628.932861 204.777649,615.168823 
	C199.192917,597.042969 194.028778,578.787354 188.699249,560.583008 
	C178.788681,526.730957 168.859802,492.884216 159.014450,459.013184 
	C157.391724,453.430573 155.652527,447.806274 154.848114,442.077545 
	C153.297806,431.036865 159.995911,421.389679 170.219666,418.982727 
	C183.337097,415.894501 194.954376,421.338074 198.748596,432.778351 
	C201.468506,440.979401 203.618362,449.370361 205.990173,457.685883 
	C214.474060,487.430298 222.919876,517.185730 231.514191,546.898193 
	C231.835770,548.010010 231.118622,551.120117 234.484497,549.616333 
z"/>
<path fill="#000000" opacity="1.000000" stroke="none" 
	d="
M535.000000,382.987549 
	C423.857208,382.980103 313.214447,382.987305 202.571671,382.939850 
	C192.751724,382.935638 182.928314,382.682312 173.113068,382.350922 
	C162.670990,381.998322 154.488297,373.234283 153.721100,361.858704 
	C152.972885,350.764740 159.038406,342.595001 169.740036,340.517487 
	C172.335739,340.013519 175.028030,339.801727 177.675949,339.801270 
	C399.961182,339.764526 622.246399,339.770905 844.531616,339.727509 
	C854.444763,339.725586 862.199951,343.165131 866.151428,352.657898 
	C869.772095,361.355804 867.846558,369.303833 861.678162,376.255554 
	C858.038391,380.357483 853.221863,381.940186 847.892212,382.348816 
	C834.088196,383.407227 820.260681,383.036896 806.441772,383.037872 
	C716.127869,383.044250 625.813904,383.009125 535.000000,382.987549 
z"/>
<path fill="#000000" opacity="1.000000" stroke="none" 
	d="
M687.000122,671.595947 
	C740.666199,671.614197 793.832336,671.625977 846.998413,671.659485 
	C856.908386,671.665771 863.391846,676.110718 866.531311,684.922607 
	C869.736328,693.918396 867.238037,703.604309 860.254028,709.421387 
	C855.144165,713.677490 848.980591,714.099121 842.785889,714.101990 
	C782.619934,714.129761 722.453918,714.080017 662.287964,714.090881 
	C502.623596,714.119690 342.959259,714.168213 183.294907,714.204834 
	C178.969681,714.205811 174.664154,714.275146 170.356537,713.446533 
	C161.039749,711.654358 154.119858,703.557678 153.701599,693.625061 
	C153.251526,682.937134 158.643112,674.962341 168.067657,672.240051 
	C171.189590,671.338257 174.356918,671.656128 177.504654,671.655640 
	C342.502960,671.627869 507.501251,671.624146 672.499573,671.616821 
	C677.166382,671.616577 681.833252,671.603943 687.000122,671.595947 
z"/>
<path fill="#000000" opacity="1.000000" stroke="none" 
	d="
M615.220215,438.552917 
	C617.170227,424.768494 626.181030,417.241730 639.290283,418.040436 
	C653.247498,418.890869 662.136780,427.816376 662.154480,441.394073 
	C662.228027,497.881958 662.235046,554.369934 662.201599,610.857849 
	C662.195129,621.875854 656.996338,630.124878 648.249023,633.616577 
	C637.595581,637.869019 626.549622,636.142944 619.274414,627.858887 
	C606.968018,613.845825 595.153870,599.396729 583.265137,585.021545 
	C561.926392,559.219971 540.687073,533.336243 519.398132,507.493408 
	C518.780640,506.743835 518.244324,505.813446 516.840881,505.916840 
	C514.501953,507.463074 515.384888,510.024261 515.380859,512.186584 
	C515.319214,545.346130 515.339172,578.505798 515.329590,611.665466 
	C515.325439,626.130493 506.386200,635.265930 492.174957,635.359192 
	C478.510834,635.448853 468.778748,625.704834 468.762390,611.567810 
	C468.696655,554.746643 468.683594,497.925354 468.748474,441.104187 
	C468.759186,431.719116 472.362610,424.032135 481.499207,420.330841 
	C491.242889,416.383636 501.068085,416.642273 509.176636,423.894653 
	C519.891663,433.478363 527.893127,445.540985 536.987305,456.588257 
	C561.339722,486.170685 585.426575,515.971680 609.636963,545.671143 
	C610.769592,547.060547 611.710632,548.744690 613.850647,549.164001 
	C616.550598,547.523132 615.610168,544.766724 615.599731,542.453674 
	C615.459229,511.299225 615.228577,480.145172 615.040527,448.990906 
	C615.020386,445.660095 615.127136,442.328461 615.220215,438.552917 
z"/>
<path fill="#000000" opacity="1.000000" stroke="none" 
	d="
M733.706055,633.501221 
	C725.994385,632.965698 718.747314,635.511292 711.433594,633.534424 
	C702.230164,631.046936 696.619812,624.108215 696.618225,614.736450 
	C696.608337,555.745728 696.606873,496.754944 696.614746,437.764191 
	C696.616211,426.726318 704.052368,418.831909 715.466370,418.790344 
	C759.625549,418.629517 803.786072,418.664276 847.945312,418.833893 
	C857.911865,418.872192 865.676941,426.300415 867.382324,436.394928 
	C869.257812,447.495819 864.391235,457.255066 855.065125,461.030640 
	C851.170654,462.607239 847.160522,463.357605 842.902405,463.346100 
	C812.240662,463.263062 781.578491,463.300293 750.916504,463.299988 
	C744.321167,463.299927 744.226379,463.377167 744.215088,469.989105 
	C744.199768,478.987671 744.382446,487.990631 744.147766,496.983032 
	C744.033447,501.361145 745.620789,502.733185 749.964355,502.703674 
	C773.959534,502.540558 797.956421,502.620911 821.952759,502.639771 
	C835.083435,502.650085 844.935120,512.357361 844.907288,525.207947 
	C844.881836,537.000488 834.707092,547.183838 822.252930,547.280823 
	C798.591309,547.465027 774.927307,547.342285 751.264282,547.341187 
	C744.425659,547.340881 744.261292,547.460876 744.241577,554.301331 
	C744.215149,563.466492 744.223877,572.631958 744.263245,581.796997 
	C744.289246,587.860596 745.054565,588.619324 751.277649,588.589172 
	C780.767883,588.446350 810.257935,588.258423 839.748230,588.131409 
	C842.572327,588.119263 845.415405,588.267639 848.219604,588.596985 
	C860.150635,589.998108 868.994629,600.710571 868.124023,612.586426 
	C867.222046,624.891113 858.118164,633.337524 845.624634,633.356323 
	C808.463928,633.412170 771.303223,633.434265 733.706055,633.501221 
z"/>
</svg>